<?xml version="1.0" encoding="utf-8"?>
<!-- Generator: Adobe Illustrator 27.0.0, SVG Export Plug-In . SVG Version: 6.00 Build 0)  -->
<svg version="1.1" id="레이어_1" xmlns="http://www.w3.org/2000/svg" xmlns:xlink="http://www.w3.org/1999/xlink" x="0px"
	 y="0px" viewBox="0 0 142.5 145.5" style="enable-background:new 0 0 142.5 145.5;" xml:space="preserve">
<style type="text/css">
	.st0{fill:none;stroke:#000000;stroke-width:11.7497;stroke-linecap:round;stroke-linejoin:round;stroke-miterlimit:10;}
</style>
<g>
	<path class="st0" d="M5.9,34.3v93.8c0,6.4,5.2,11.5,11.5,11.5h107.7c6.4,0,11.5-5.2,11.5-11.5V34.3c0-6.4-5.2-11.5-11.5-11.5h-38
		L71.2,5.9l-16,16.9l-37.9,0C11,22.8,5.9,27.9,5.9,34.3z"/>
	
		<ellipse transform="matrix(0.7071 -0.7071 0.7071 0.7071 -27.0705 70.2253)" class="st0" cx="71.2" cy="67.8" rx="24.6" ry="24.6"/>
	<path class="st0" d="M87.3,108.9H55.1c-14,0-25.4,11.4-25.4,25.4v5.4h82.9v-5.4C112.7,120.2,101.3,108.9,87.3,108.9z"/>
</g>
</svg>
