<?xml version="1.0" encoding="utf-8"?>
<!-- Generator: Adobe Illustrator 27.0.0, SVG Export Plug-In . SVG Version: 6.00 Build 0)  -->
<svg version="1.1" id="레이어_1" xmlns="http://www.w3.org/2000/svg" xmlns:xlink="http://www.w3.org/1999/xlink" x="0px"
	 y="0px" viewBox="0 0 118.7 27.7" style="enable-background:new 0 0 118.7 27.7;" xml:space="preserve">
<style type="text/css">
	.st0{fill:#1A1A1A;}
</style>
<g>
	<path class="st0" d="M27.7,13.8c0,7.6-6.2,13.8-13.8,13.8S0,21.5,0,13.8C0,6.2,6.2,0,13.8,0S27.7,6.2,27.7,13.8z"/>
	<path class="st0" d="M73.2,13.8c0,7.6-6.2,13.8-13.8,13.8s-13.8-6.2-13.8-13.8C45.5,6.2,51.7,0,59.3,0S73.2,6.2,73.2,13.8z"/>
	<path class="st0" d="M118.7,13.8c0,7.6-6.2,13.8-13.8,13.8S91,21.5,91,13.8C91,6.2,97.2,0,104.8,0S118.7,6.2,118.7,13.8z"/>
</g>
</svg>
