<?xml version="1.0" encoding="utf-8"?>
<!-- Generator: Adobe Illustrator 27.0.0, SVG Export Plug-In . SVG Version: 6.00 Build 0)  -->
<svg version="1.1" id="레이어_1" xmlns="http://www.w3.org/2000/svg" xmlns:xlink="http://www.w3.org/1999/xlink" x="0px"
	 y="0px" viewBox="0 0 117.6 132.6" style="enable-background:new 0 0 117.6 132.6;" xml:space="preserve">
<style type="text/css">
	.st0{fill:none;stroke:#000000;stroke-width:11.7497;stroke-linecap:round;stroke-linejoin:round;stroke-miterlimit:10;}
</style>
<g>
	<path class="st0" d="M111.7,107.9c0,0-8.4-6.1-8.4-26.3c0-4.7,0-8.2,0-17.3c0-27.2-17.7-47.9-44.6-50.7
		c-26.9,2.8-44.6,23.5-44.6,50.7c0,9.1,0,12.5,0,17.3c0,20.3-8.4,26.3-8.4,26.3H111.7z"/>
	<path d="M71.7,18.1c0.5-1.4,0.8-2.9,0.8-4.5C72.4,6.1,66.3,0,58.8,0c-7.5,0-13.6,6.1-13.6,13.6c0,1.6,0.3,3.1,0.8,4.5H71.7z"/>
	<path d="M58.8,132.6c8,0,14.5-5.7,14.5-12.8H44.3C44.3,126.9,50.8,132.6,58.8,132.6z"/>
</g>
</svg>
