<?xml version="1.0" encoding="utf-8"?>
<!-- Generator: Adobe Illustrator 27.0.0, SVG Export Plug-In . SVG Version: 6.00 Build 0)  -->
<svg version="1.1" id="레이어_1" xmlns="http://www.w3.org/2000/svg" xmlns:xlink="http://www.w3.org/1999/xlink" x="0px"
	 y="0px" viewBox="0 0 132.1 132.1" style="enable-background:new 0 0 132.1 132.1;" xml:space="preserve">
<style type="text/css">
	.st0{fill:#FFFFFF;}
</style>
<g>
	<path class="st0" d="M130.9,79.1l-12-13.1l11.9-13.2c2.4-2.6,1.2-6.8-2.1-7.8l-16.9-5.4l3.7-17.4c0.7-3.4-2.3-6.5-5.7-5.7
		l-17.4,3.8L86.9,3.3c-1.1-3.3-5.2-4.4-7.8-2.1L66,13.2L52.8,1.3C50.2-1,46,0.1,44.9,3.4l-5.4,16.9l-17.4-3.7
		c-3.4-0.7-6.5,2.3-5.7,5.7l3.8,17.4L3.3,45.2C0,46.3-1.1,50.4,1.3,53l12,13.1L1.3,79.3c-2.4,2.6-1.2,6.8,2.1,7.8l16.9,5.4
		l-3.7,17.4c-0.7,3.4,2.3,6.5,5.7,5.7l17.4-3.8l5.5,16.9c1.1,3.3,5.2,4.4,7.8,2.1l13.1-12l13.2,11.9c2.6,2.4,6.8,1.2,7.8-2.1
		l5.4-16.9l17.4,3.7c3.4,0.7,6.5-2.3,5.7-5.7l-3.8-17.4l16.9-5.5C132.1,85.8,133.2,81.7,130.9,79.1z M69.4,84.9l-8.8,8.8l-8.8-8.8
		L38.4,71.5l8.8-8.8l13.3,13.3l30.3-30.3l8.8,8.8L69.4,84.9z"/>
</g>
</svg>
