<?xml version="1.0" encoding="utf-8"?>
<!-- Generator: Adobe Illustrator 27.0.0, SVG Export Plug-In . SVG Version: 6.00 Build 0)  -->
<svg version="1.1" id="레이어_1" xmlns="http://www.w3.org/2000/svg" xmlns:xlink="http://www.w3.org/1999/xlink" x="0px"
	 y="0px" viewBox="0 0 118.4 118" style="enable-background:new 0 0 118.4 118;" xml:space="preserve">
<style type="text/css">
	.st0{fill:#FFFFFF;}
</style>
<g>
	<g>
		<path d="M78.9,93.9H16c-8.3,0-15-6.7-15-15V16C1,7.7,7.7,1,16,1h62.9c8.3,0,15,6.7,15,15v62.9C93.9,87.2,87.2,93.9,78.9,93.9z"/>
		<path d="M108.6,23.9v55c0,16.4-13.3,29.7-29.7,29.7H24.6c2.3,5.5,7.8,9.4,14.1,9.4h48.1c17.4,0,31.6-14.1,31.6-31.6V38.2
			C118.4,31.7,114.3,26.1,108.6,23.9z"/>
	</g>
	<g>
		<path class="st0" d="M77.9,92.9H15c-8.3,0-15-6.7-15-15V15C0,6.7,6.7,0,15,0h62.9c8.3,0,15,6.7,15,15v62.9
			C92.9,86.2,86.2,92.9,77.9,92.9z"/>
		<path class="st0" d="M107.6,22.9v55c0,16.4-13.3,29.7-29.7,29.7H23.6c2.3,5.5,7.8,9.4,14.1,9.4h48.1c17.4,0,31.6-14.1,31.6-31.6
			V37.2C117.4,30.7,113.3,25.1,107.6,22.9z"/>
	</g>
</g>
</svg>
