<?xml version="1.0" encoding="utf-8"?>
<!-- Generator: Adobe Illustrator 27.0.0, SVG Export Plug-In . SVG Version: 6.00 Build 0)  -->
<svg version="1.1" id="레이어_1" xmlns="http://www.w3.org/2000/svg" xmlns:xlink="http://www.w3.org/1999/xlink" x="0px"
	 y="0px" viewBox="0 0 142.5 145.5" style="enable-background:new 0 0 142.5 145.5;" xml:space="preserve">
<style type="text/css">
	.st0{fill:none;stroke:#000000;stroke-width:12.0144;stroke-linecap:round;stroke-linejoin:round;stroke-miterlimit:10;}
	.st1{fill:none;stroke:#000000;stroke-width:10.6903;stroke-linecap:round;stroke-linejoin:round;stroke-miterlimit:10;}
</style>
<g>
	<g>
		<path class="st0" d="M106.7,131H36c-12.7,0-22.9-10.3-22.9-22.9V37.4c0-12.7,10.3-22.9,22.9-22.9h70.7c12.7,0,22.9,10.3,22.9,22.9
			v70.7C129.6,120.8,119.4,131,106.7,131z"/>
		<line class="st1" x1="128.1" y1="39.3" x2="12.2" y2="39.3"/>
	</g>
	<g>
		<path class="st0" d="M62.6,101.8l26.3-15.3c2.1-1.2,2.1-4.2,0-5.4L62.6,65.9c-2.4-1.4-5.3,0.3-5.3,3.1v29.8
			C57.3,101.5,60.2,103.2,62.6,101.8z"/>
	</g>
	<g>
		<line class="st0" x1="39.9" y1="16.7" x2="61.7" y2="38.5"/>
		<line class="st0" x1="79.9" y1="16.7" x2="101.7" y2="38.5"/>
	</g>
</g>
</svg>
